name rise30.3154peak39.0474fall46.5389.mot
datacolumns 19
datarows 14
range 4.79832100000000 4.81998200000000
endheader
time	ground_force1_vx	ground_force1_vy	ground_force1_vz	ground_force1_px	ground_force1_py	ground_force1_pz	ground_force2_vx	ground_force2_vy	ground_force2_vz	ground_force2_px	ground_force2_py	ground_force2_pz	ground_torque1_x	ground_torque1_y	ground_torque1_z	ground_torque2_x	ground_torque2_y	ground_torque2_z	
4.79832100000000	-4.87326400000000	42.48126200000000	-11.41578500000000	0.29404300000000	0.00000000000000	0.09664300000000	-49.32061900000000	784.73788999999999	-57.58054900000000	0.10042700000000	0.00000000000000	-0.08867900000000	0.00000000000000	-7.69406400000000	0.00000000000000	0.00000000000000	-18.50076500000000	0.00000000000000	
4.79998900000000	-5.35997300000000	49.90122300000000	-12.86697800000000	0.29901500000000	0.00000000000000	0.09782700000000	-49.55006600000000	782.26202999999998	-57.55746600000000	0.09978500000000	0.00000000000000	-0.08867500000000	0.00000000000000	-8.74855600000000	0.00000000000000	0.00000000000000	-18.41219500000000	0.00000000000000	
4.80165000000000	-5.75569400000000	57.44074700000000	-14.19577000000000	0.30348400000000	0.00000000000000	0.09889900000000	-49.78975800000000	779.67767700000002	-57.51276100000000	0.09914900000000	0.00000000000000	-0.08866800000000	0.00000000000000	-9.73294400000000	0.00000000000000	0.00000000000000	-18.32440000000000	0.00000000000000	
4.80332200000000	-6.04593000000000	65.00375400000000	-15.37172900000000	0.30753200000000	0.00000000000000	0.09987500000000	-50.03996700000000	776.98354200000006	-57.44566300000000	0.09852100000000	0.00000000000000	-0.08865800000000	0.00000000000000	-10.62502100000000	0.00000000000000	0.00000000000000	-18.23747300000000	0.00000000000000	
4.80498800000000	-6.22134900000000	72.51645600000001	-16.37433200000000	0.31122900000000	0.00000000000000	0.10077200000000	-50.30089400000000	774.17828599999996	-57.35541800000000	0.09790000000000	0.00000000000000	-0.08864300000000	0.00000000000000	-11.40930500000000	0.00000000000000	0.00000000000000	-18.15149600000000	0.00000000000000	
4.80665300000000	-6.27777000000000	79.92971500000000	-17.19314300000000	0.31462600000000	0.00000000000000	0.10160100000000	-50.57266600000000	771.26052600000003	-57.24129200000000	0.09728600000000	0.00000000000000	-0.08862500000000	0.00000000000000	-12.07729100000000	0.00000000000000	0.00000000000000	-18.06653600000000	0.00000000000000	
4.80831700000000	-6.21572100000000	87.21899700000000	-17.82713500000000	0.31776900000000	0.00000000000000	0.10237200000000	-50.85533400000000	768.22883000000002	-57.10257100000000	0.09668000000000	0.00000000000000	-0.08860200000000	0.00000000000000	-12.62708100000000	0.00000000000000	0.00000000000000	-17.98265000000000	0.00000000000000	
4.80998500000000	-6.03970500000000	94.38229200000001	-18.28336200000000	0.32069100000000	0.00000000000000	0.10309300000000	-51.14887200000000	765.08172600000000	-56.93857100000000	0.09608300000000	0.00000000000000	-0.08857500000000	0.00000000000000	-13.06254000000000	0.00000000000000	0.00000000000000	-17.89987700000000	0.00000000000000	
4.81165000000000	-5.75726300000000	101.43654800000000	-18.57519000000000	0.32342300000000	0.00000000000000	0.10376900000000	-51.45317600000000	761.81770100000006	-56.74863300000000	0.09549500000000	0.00000000000000	-0.08854400000000	0.00000000000000	-13.39212200000000	0.00000000000000	0.00000000000000	-17.81824600000000	0.00000000000000	
4.81331800000000	-5.37795400000000	108.41316200000000	-18.72032900000000	0.32598700000000	0.00000000000000	0.10440700000000	-51.76806000000000	758.43520500000000	-56.53213000000000	0.09491600000000	0.00000000000000	-0.08850800000000	0.00000000000000	-13.62751900000000	0.00000000000000	0.00000000000000	-17.73777100000000	0.00000000000000	
4.81498400000000	-4.91236300000000	115.35306500000000	-18.73885200000000	0.32840600000000	0.00000000000000	0.10501100000000	-52.09325800000000	754.93265699999995	-56.28847000000000	0.09434700000000	0.00000000000000	-0.08846700000000	0.00000000000000	-13.78228100000000	0.00000000000000	0.00000000000000	-17.65845000000000	0.00000000000000	
4.81665300000000	-4.37119000000000	122.30188600000000	-18.65136100000000	0.33069400000000	0.00000000000000	0.10558400000000	-52.42842200000000	751.30844999999999	-56.01709900000000	0.09378800000000	0.00000000000000	-0.08842100000000	0.00000000000000	-13.87052100000000	0.00000000000000	0.00000000000000	-17.58026800000000	0.00000000000000	
4.81831500000000	-3.76449700000000	129.30554699999999	-18.47743300000000	0.33286800000000	0.00000000000000	0.10613000000000	-52.77312200000000	747.56095500000004	-55.71750200000000	0.09324000000000	0.00000000000000	-0.08837100000000	0.00000000000000	-13.90579800000000	0.00000000000000	0.00000000000000	-17.50319500000000	0.00000000000000	
4.81998200000000	-3.10114400000000	136.40657600000000	-18.23441300000000	0.33493700000000	0.00000000000000	0.10665200000000	-53.12684500000000	743.68852500000003	-55.38920800000000	0.09270300000000	0.00000000000000	-0.08831500000000	0.00000000000000	-13.90022800000000	0.00000000000000	0.00000000000000	-17.42718700000000	0.00000000000000	
